<svg width="64" height="64" viewBox="0 0 64 64" fill="none" xmlns="http://www.w3.org/2000/svg">
  <rect width="64" height="64" rx="16" fill="#09090B"/>
  <rect x="2" y="2" width="60" height="60" rx="14" stroke="#27272A" stroke-width="2"/>
  <path d="M18 18C18 15.7909 19.7909 14 22 14H42C44.2091 14 46 15.7909 46 18V34C46 36.2091 44.2091 38 42 38H31L23.5 45V38H22C19.7909 38 18 36.2091 18 34V18Z" fill="#10B981"/>
  <rect x="24" y="20" width="8" height="8" rx="1.5" fill="#09090B"/>
  <rect x="32" y="20" width="8" height="8" rx="1.5" fill="#D4D4D8"/>
  <rect x="24" y="28" width="8" height="8" rx="1.5" fill="#D4D4D8"/>
  <rect x="32" y="28" width="8" height="8" rx="1.5" fill="#09090B"/>
  <path d="M46 47C46 49.7614 39.732 52 32 52C24.268 52 18 49.7614 18 47" stroke="#F4F4F5" stroke-width="3" stroke-linecap="round"/>
</svg>
